<?xml version="1.0" encoding="UTF-8"?>
<svg width="133px" height="115px" viewBox="0 0 133 115" version="1.1" xmlns="http://www.w3.org/2000/svg" xmlns:xlink="http://www.w3.org/1999/xlink">
    <!-- Generator: Sketch 45.2 (43514) - http://www.bohemiancoding.com/sketch -->
    <title>Horeca svg</title>
    <desc>Created with Sketch.</desc>
    <defs></defs>
    <g id="Page-1" stroke="none" stroke-width="1" fill="none" fill-rule="evenodd">
        <g id="Stap-1-" transform="translate(-199.000000, -717.000000)">
            <g id="Options" transform="translate(136.000000, 687.000000)">
                <g id="Horeca">
                    <g id="Horeca-svg" transform="translate(63.000000, 30.000000)">
                        <path d="M50.1416,35.9275676 C49.933,35.7169156 49.6278,35.6349169 49.3436,35.7155019 C49.0608,35.7960868 48.841,36.0237041 48.7696,36.3121135 C48.3566,37.9945019 48.8452,41.4851042 53.6654,48.3673449 L62.3748,60.4635757 C64.0142,62.6563356 65.571,62.3057202 67.2818,61.7925211 C67.2818,61.7925211 70.1854,60.8792246 72.543,63.5342878 C72.543,63.5342878 73.292,64.3189311 73.7624,65.2562618 C74.5142,66.7407221 74.3028,67.7812581 76.0738,69.5710931 L82.8638,76.4278859 C84.8322,78.4170627 85.7282,78.0791712 86.634,77.1644609 L87.194,76.5989522 C88.7984,74.9787699 88.0592,74.2195744 86.5556,72.6997699 L50.1416,35.9275676 Z" id="Shape" fill="#FE7202" fill-rule="nonzero"></path>
                        <path d="M61.063,61.4631123 L60.5716,60.7802605 L47.672,72.9683865 C46.8558,73.7403058 46.748,75.1102506 47.5404,75.9104454 L48.9838,77.3666303 C49.772,78.1639975 51.1314,78.0579646 51.8958,77.2351495 L64.4104,63.7265608 C63.1476,63.4947022 62.0388,62.7666098 61.063,61.4631123 Z" id="Shape" fill="#FE7202" fill-rule="nonzero"></path>
                        <path d="M88.6388,40.9888703 C88.4568,40.8064938 88.209,40.7047022 87.9528,40.7075298 C87.6966,40.7103573 87.4516,40.8192177 87.2752,41.0086632 L78.3684,50.4667959 C78.2396,50.6039318 78.0604,50.6802754 77.8728,50.6816892 C77.6866,50.6816892 77.5074,50.6053455 77.3772,50.4682097 C77.128,50.2052481 77.1238,49.791013 77.3688,49.5238102 L86.1762,39.8309913 C86.529,39.4450316 86.515,38.8470062 86.1468,38.4737705 L86.0586,38.3847029 C85.6904,38.0128809 85.0982,38.0015707 84.7146,38.3550136 L75.112,47.2462239 C74.8474,47.493634 74.4372,47.4893927 74.1768,47.2363275 C74.041,47.1062605 73.9668,46.9252978 73.9668,46.7358524 C73.9668,46.5478207 74.0466,46.3682717 74.1796,46.2382047 L83.5498,37.2437891 C83.736,37.0656538 83.8424,36.8182438 83.8452,36.5595236 C83.848,36.3008033 83.7486,36.0519795 83.568,35.8681892 C83.218,35.5147463 82.6608,35.4907122 82.2814,35.8116383 L70.198,46.0544144 C69.3426,46.7726104 67.8348,48.4309646 67.7312,51.3447481 L73.3074,56.9758009 C76.1956,56.8740093 77.8364,55.3527909 78.549,54.4875627 L88.6934,42.2881266 C89.014,41.907822 88.9888,41.3423133 88.6388,40.9888703 Z" id="Shape" fill="#FE7202" fill-rule="nonzero"></path>
                        <path d="M58.4444444,99.1666667 L58.4444444,95.6666667 C58.4444444,95.3611111 58.1944444,95.1111111 57.8888889,95.1111111 C57.5833333,95.1111111 57.3333333,95.3611111 57.3333333,95.6666667 L57.3333333,99.1666667 C57.3333333,99.4722222 57.5833333,99.7222222 57.8888889,99.7222222 C58.1944444,99.7222222 58.4444444,99.4722222 58.4444444,99.1666667 Z" id="Shape" fill="#FE7202" fill-rule="nonzero"></path>
                        <path d="M62.0555556,100.388889 L62.0555556,96.8611111 C62.0555556,96.5555556 61.8055556,96.3055556 61.5,96.3055556 C61.1944444,96.3055556 60.9444444,96.5555556 60.9444444,96.8611111 L60.9444444,100.388889 C60.9444444,100.694444 61.1944444,100.944444 61.5,100.944444 C61.8055556,100.944444 62.0555556,100.694444 62.0555556,100.388889 Z" id="Shape" fill="#FE7202" fill-rule="nonzero"></path>
                        <path d="M54.8333333,100.388889 L54.8333333,96.8611111 C54.8333333,96.5555556 54.5833333,96.3055556 54.2777778,96.3055556 C53.9722222,96.3055556 53.7222222,96.5555556 53.7222222,96.8611111 L53.7222222,100.388889 C53.7222222,100.694444 53.9722222,100.944444 54.2777778,100.944444 C54.5833333,100.944444 54.8333333,100.694444 54.8333333,100.388889 Z" id="Shape" fill="#FE7202" fill-rule="nonzero"></path>
                        <path d="M50.1111111,114.333333 C50.1111111,114.638889 50.3611111,114.888889 50.6666667,114.888889 L64.9166667,114.888889 C65.2222222,114.888889 65.4722222,114.638889 65.4722222,114.333333 C65.4722222,114.027778 65.2222222,113.777778 64.9166667,113.777778 L61.8888889,113.777778 C62.9722222,113.111111 63.9166667,112.194444 64.5555556,111.083333 L67.1666667,111.083333 C68.6666667,111.083333 69.8888889,109.861111 69.8888889,108.361111 C69.8888889,106.861111 68.6666667,105.638889 67.1666667,105.638889 L65.6666667,105.638889 L65.6666667,103.638889 C65.6666667,103.333333 65.4166667,103.083333 65.1111111,103.083333 L50.6944444,103.083333 C50.3888889,103.083333 50.1388889,103.333333 50.1388889,103.638889 L50.1388889,107.138889 C50.1388889,109.972222 51.6388889,112.444444 53.9166667,113.805556 L50.6666667,113.805556 C50.3611111,113.777778 50.1111111,114.027778 50.1111111,114.333333 Z M67.1666667,106.75 C68.0555556,106.75 68.7777778,107.472222 68.7777778,108.361111 C68.7777778,109.25 68.0555556,109.972222 67.1666667,109.972222 L65.1111111,109.972222 C65.4722222,109.083333 65.6666667,108.111111 65.6666667,107.111111 L65.6666667,106.722222 L67.1666667,106.722222 L67.1666667,106.75 Z M51.25,107.138889 L51.25,104.194444 L64.5555556,104.194444 L64.5555556,107.138889 C64.5555556,110.805556 61.5833333,113.805556 57.8888889,113.805556 C54.1944444,113.805556 51.25,110.805556 51.25,107.138889 Z" id="Shape" fill="#FE7202" fill-rule="nonzero"></path>
                        <path d="M119.8,55.1318681 L119.8,62.0549451 C119.8,62.2372527 119.648708,62.3846154 119.461538,62.3846154 C119.274369,62.3846154 119.123077,62.2372527 119.123077,62.0549451 L119.123077,55.1318681 C119.123077,54.9495604 119.274369,54.8021978 119.461538,54.8021978 C119.648708,54.8021978 119.8,54.9495604 119.8,55.1318681 Z M120.032523,50.2613187 C119.852123,50.2135165 119.666646,50.3213187 119.619938,50.4976923 C119.339692,51.5513187 119.192462,52.4569231 119.142708,53.4963736 C119.133908,53.678022 119.278092,53.8131868 119.464923,53.8131868 C119.470677,53.8131868 119.475754,53.8131868 119.481169,53.8131868 C119.660554,53.8131868 119.810492,53.7034066 119.818954,53.5267033 C119.866338,52.5343956 120.007138,51.6564835 120.2752,50.649011 C120.321908,50.4726374 120.213262,50.3068132 120.032523,50.2613187 Z M133,52.8637363 L133,64.3098901 C133,64.9721978 132.531908,65.6813187 131.835692,65.6813187 L126.262585,65.6813187 C126.229077,66.3225275 125.7972,67 125.130431,67 L118.886492,67 C118.2204,67 117.792246,66.3225275 117.758738,65.6813187 L112.110154,65.6813187 C111.415292,65.6813187 111,64.9840659 111,64.3098901 L111,52.8637363 C111,50.6236264 111.377046,48.8931868 112.494646,45.9851648 C113.346215,43.7631868 113.597354,41.0443956 113.667077,39.9271429 C113.580769,39.8826374 113.505969,39.8315385 113.449446,39.7501099 C113.337077,39.5875824 113.314738,39.4095604 113.389877,39.2275824 L113.516462,38.978022 L113.3848,38.978022 C113.270062,38.978022 113.163108,38.8543956 113.100492,38.7604396 C113.037877,38.6664835 113.029077,38.4812088 113.076123,38.3793407 L113.4508,37.5446154 C113.590585,37.2423077 113.900615,37 114.241108,37 L116.287108,37 C116.6276,37 116.937631,37.2561538 117.077415,37.5584615 L117.451754,38.4304396 C117.4988,38.5326374 117.489323,38.6783516 117.427385,38.7723077 C117.365108,38.8662637 117.257815,38.978022 117.143077,38.978022 L117.011415,38.978022 L117.137662,39.2275824 C117.213138,39.4095604 117.190462,39.5598901 117.078092,39.7224176 C117.008369,39.822967 116.908185,39.8945055 116.795477,39.9376923 C116.823908,40.4127473 116.901077,41.4172527 117.088923,42.6043956 L117.092308,42.6043956 L117.092308,42.6248352 C117.275415,43.776044 117.562769,45.0957143 118.011908,46.2673626 C118.300954,47.023956 118.536185,47.6902198 118.729785,48.2987912 C118.864831,47.9134066 119.012738,47.5112088 119.177908,47.0796703 C120.030831,44.8547253 120.307015,42.103956 120.389262,40.9481319 C120.333077,40.9082418 120.281631,40.866044 120.241692,40.8083516 C120.128646,40.6454945 120.106646,40.4463736 120.181785,40.2637363 L120.310738,39.967033 L120.173323,39.967033 C120.058585,39.967033 119.951631,39.9162637 119.889015,39.8223077 C119.8264,39.7283516 119.8176,39.6162637 119.864646,39.5140659 L120.242708,38.407033 C120.384185,38.1027473 120.695569,37.989011 121.037415,37.989011 L123.102031,37.989011 C123.444554,37.989011 123.756277,38.1067033 123.896738,38.4106593 L124.2748,39.4804396 C124.321846,39.5826374 124.312708,39.7079121 124.250431,39.8018681 C124.188154,39.8958242 124.080523,39.967033 123.966123,39.967033 L123.828708,39.967033 L123.957662,40.2643956 C124.033477,40.447033 124.0108,40.6389011 123.897754,40.8020879 C123.831415,40.8973626 123.738,40.9672527 123.6324,41.0114286 C123.720062,42.2031868 124.001662,44.8962637 124.838677,47.08 C124.988277,47.4696703 125.124338,47.8395604 125.248892,48.190989 C125.433354,47.6173626 125.657754,46.990989 125.933938,46.2736264 C126.871138,43.8291209 127.104677,40.753956 127.153754,39.8918681 C127.090462,39.8503297 127.032246,39.8140659 126.988246,39.7501099 C126.875877,39.5875824 126.853538,39.4095604 126.928677,39.2275824 L127.054923,38.978022 L126.923262,38.978022 C126.808523,38.978022 126.667046,38.9002198 126.604431,38.8062637 C126.541815,38.7123077 126.567538,38.4812088 126.614585,38.3793407 L126.989262,37.5446154 C127.129046,37.2423077 127.439077,37 127.779569,37 L129.825569,37 C130.166062,37 130.476092,37.2561538 130.615877,37.5584615 L130.990215,38.4304396 C131.037262,38.5326374 131.059262,38.7123077 130.997323,38.8065934 C130.935046,38.9002198 130.796277,38.978022 130.681538,38.978022 L130.549877,38.978022 L130.676123,39.2275824 C130.7516,39.4095604 130.728923,39.5598901 130.616554,39.7224176 C130.534985,39.8397802 130.414154,39.9215385 130.277754,39.9584615 C130.361015,41.1040659 130.635846,43.7869231 131.475231,45.9782418 C132.615169,48.9535165 133,50.6905495 133,52.8637363 Z M127.826277,39.967033 C127.798523,40.6263736 127.725077,41.4403297 127.545015,42.6043956 L129.908492,42.6043956 C129.726062,41.5089011 129.639077,40.6263736 129.599477,39.967033 L127.826277,39.967033 Z M126.887385,45.5621978 L128.795969,47.4713187 L130.612154,45.5595604 C130.363046,44.798022 130.172831,44.0107692 130.027631,43.2637363 L127.434338,43.2637363 C127.299969,44.0045055 127.122277,44.7927473 126.887385,45.5621978 Z M127.446862,38.3186813 L130.158615,38.3186813 L129.998523,37.8703297 C129.968062,37.8040659 129.900031,37.6593407 129.825569,37.6593407 L127.779569,37.6593407 C127.705108,37.6593407 127.637077,37.8040659 127.606615,37.8703297 L127.446862,38.3186813 Z M127.784985,38.978022 L127.596123,39.3076923 L130.008677,39.3076923 L129.819815,38.978022 L127.784985,38.978022 Z M121.061108,40.956044 C121.019815,41.6153846 120.934862,42.550989 120.764615,43.5934066 L123.252308,43.5934066 C123.0824,42.550989 122.997446,41.6153846 122.956154,40.956044 L121.061108,40.956044 Z M120.050123,46.631978 L122.063292,48.6363736 L123.965785,46.6286813 C123.709908,45.8410989 123.515969,45.0251648 123.369077,44.2527473 L120.647846,44.2527473 C120.500615,45.0261538 120.306338,45.8434066 120.050123,46.631978 Z M120.696923,39.3076923 L123.442185,39.3076923 L123.279046,38.6918681 C123.247908,38.6242857 123.178185,38.6483516 123.102031,38.6483516 L121.037415,38.6483516 C120.960923,38.6483516 120.891538,38.6242857 120.860062,38.6921978 L120.696923,39.3076923 Z M121.041138,39.967033 L120.848554,40.2967033 L123.257723,40.2967033 L123.098646,39.967033 L121.041138,39.967033 Z M113.354677,45.5678022 L115.257508,47.4713187 L117.061169,45.5727473 C116.824923,44.8 116.646215,44.0078022 116.511508,43.2637363 L113.935138,43.2637363 C113.792646,44.0134066 113.604123,44.8036264 113.354677,45.5678022 Z M116.400492,42.6043956 C116.220431,41.4403297 116.146985,40.6263736 116.119231,39.967033 L114.342308,39.967033 C114.307108,40.6263736 114.226892,41.5095604 114.050215,42.6043956 L116.400492,42.6043956 Z M113.9084,38.3186813 L116.620154,38.3186813 L116.460062,37.8703297 C116.4296,37.8040659 116.361569,37.6593407 116.287108,37.6593407 L114.241108,37.6593407 C114.166646,37.6593407 114.098615,37.8040659 114.068154,37.8703297 L113.9084,38.3186813 Z M114.246523,38.978022 L114.057662,39.3076923 L116.470215,39.3076923 L116.281354,38.978022 L114.246523,38.978022 Z M112.110154,65.021978 L117.769231,65.021978 L117.769231,54.0650549 C117.769231,52.4898901 117.900892,51.1438462 118.423815,49.4265934 C118.198062,48.5905495 117.818646,47.6516484 117.377631,46.4974725 C117.350892,46.4279121 117.325508,46.3576923 117.299785,46.2874725 L115.512708,48.1402198 C115.449415,48.2064835 115.351938,48.2638462 115.258862,48.2638462 C115.257169,48.2638462 115.260554,48.2638462 115.258862,48.2638462 C115.167477,48.2638462 115.085569,48.2110989 115.0216,48.1471429 L113.110646,46.2558242 C112.039754,49.0517582 111.676923,50.7251648 111.676923,52.8637363 L111.676923,64.3098901 C111.676923,64.6464835 111.854615,65.021978 112.110154,65.021978 Z M125.553846,54.0650549 C125.553846,52.5037363 125.423877,51.1705495 124.8776,49.4262637 C124.8776,49.4262637 124.4948,48.0663736 124.216923,47.3401099 L122.318492,49.3784615 C122.2552,49.4443956 122.1672,49.5274725 122.074462,49.5274725 C122.072769,49.5274725 122.071415,49.5274725 122.069723,49.5274725 C121.978338,49.5274725 121.895415,49.4476923 121.831446,49.3837363 L119.807785,47.3404396 C119.510954,48.1164835 119.294338,48.7006593 119.077385,49.4404396 C118.976862,49.7846154 118.446154,51.9073626 118.446154,54.0650549 L118.446154,65.62 C118.446154,65.9262637 118.571723,66.3406593 118.886492,66.3406593 L125.130431,66.3406593 C125.4452,66.3406593 125.553846,65.9262637 125.553846,65.6196703 L125.553846,54.0650549 Z M132.323077,52.8637363 C132.323077,50.7930769 131.953138,49.1206593 130.861938,46.2627473 L129.051169,48.1398901 C128.987877,48.2061538 128.897508,48.2565934 128.804431,48.2565934 C128.708646,48.2565934 128.614892,48.2107692 128.550923,48.1468132 L126.636585,46.2610989 C126.608154,46.3402198 126.560769,46.419011 126.530646,46.4974725 C126.101477,47.6120879 125.761323,48.5120879 125.546738,49.303956 C126.098431,51.0802198 126.230769,52.4526374 126.230769,54.0650549 L126.230769,65.021978 L131.835692,65.021978 C132.110523,65.021978 132.323077,64.6392308 132.323077,64.3098901 L132.323077,52.8637363 Z M113.249415,49.239011 C113.069354,49.1945055 112.883877,49.2986813 112.836154,49.4747253 C112.502431,50.7189011 112.353846,51.8661538 112.353846,53.1934066 L112.353846,58.7582418 C112.353846,58.9405495 112.505138,59.0879121 112.692308,59.0879121 C112.879477,59.0879121 113.030769,58.9405495 113.030769,58.7582418 L113.030769,53.1934066 C113.030769,51.9245055 113.172923,50.829011 113.491415,49.6415385 C113.5388,49.4654945 113.430492,49.2851648 113.249415,49.239011 Z" id="Shape" fill="#FE7202" fill-rule="nonzero"></path>
                        <path d="M29.6950769,8.75569231 C31.0609231,8.72184615 32.3981538,8.48553846 33.7236923,8.176 C33.724,8.15784615 33.724,8.13969231 33.7243077,8.12123077 C33.3855385,8.08646154 33.0449231,8.06369231 32.7083077,8.01507692 C31.8504615,7.89076923 30.9864615,7.84369231 30.1221538,7.81969231 C29.0726154,7.79015385 28.0233846,7.81046154 26.9784615,7.94 C26.6572308,7.97969231 25.8664615,8.16615385 25.6836923,8.26307692 C26.9772308,8.69907692 28.3292308,8.78953846 29.6950769,8.75569231 Z" id="Shape"></path>
                        <path d="M35.6547692,9.916 C35.4704615,9.50584615 35.2793846,9.09630769 35.1563077,8.66184615 C35.0750769,8.37476923 34.8501538,8.24430769 34.5729231,8.34461538 C33.892,8.59107692 33.1984615,8.79015385 32.4886154,8.93753846 C31.0873846,9.22861538 29.6750769,9.35446154 28.2458462,9.25138462 C27.9670769,9.23138462 27.6864615,9.21261538 27.412,9.16338462 C26.7246154,9.04030769 26.0476923,8.87353846 25.4033846,8.59538462 C25.244,8.52646154 25.1446154,8.56246154 25.0803077,8.73476923 C24.9461538,9.09446154 24.8027692,9.45138462 24.6538462,9.80553846 C23.7633846,11.9267692 22.9523077,14.0695385 22.6929231,16.3806154 C22.6153846,17.0701538 22.5966154,17.7563077 22.6689231,18.4427692 C22.7461538,19.1772308 22.9286154,19.8910769 23.1726154,20.5873846 C23.4516923,21.384 23.812,22.1332308 24.4501538,22.7169231 C25.5729231,23.7436923 26.9298462,24.3516923 28.3304615,24.8747692 C28.6833846,25.0064615 29.0732308,25.0806154 29.388,25.2701538 C29.8987692,25.5775385 30.1778462,26.0673846 30.2196923,26.6870769 C30.2809231,27.5913846 30.2483077,28.496 30.2593846,29.4003077 C30.2618462,29.6076923 30.2606154,29.8153846 30.2553846,30.0224615 C30.2375385,30.7461538 30.4064615,31.4753846 30.1806154,32.1935385 C30.1347692,32.3393846 30.2009231,32.5578462 29.9196923,32.4892308 C29.9012308,32.4846154 29.8707692,32.5144615 29.8507692,32.5335385 C29.6095385,32.7636923 29.3024615,32.8726154 29.0006154,32.9864615 C28.1301538,33.3153846 27.2209231,33.4941538 26.3101538,33.6649231 C26.0689231,33.7101538 25.8218462,33.7323077 25.6178462,33.8876923 C25.5523077,33.9375385 25.4563077,33.9750769 25.4603077,34.0726154 C25.4643077,34.1747692 25.5627692,34.1981538 25.6406154,34.2261538 C25.7987692,34.2830769 25.956,34.3476923 26.1193846,34.3849231 C27.0129231,34.5889231 27.9246154,34.6156923 28.8347692,34.6372308 C30.2566154,34.6710769 31.6766154,34.6196923 33.0910769,34.4667692 C33.756,34.3947692 34.4258462,34.3323077 35.0676923,34.1276923 C35.3015385,34.0532308 35.552,33.9956923 35.7489231,33.808 C35.7144615,33.7846154 35.6987692,33.7667692 35.6803077,33.7624615 C35.0230769,33.6166154 34.3664615,33.4692308 33.7083077,33.328 C32.9224615,33.1593846 32.1258462,33.0273846 31.4123077,32.6227692 C31.3827692,32.6058462 31.3424615,32.5852308 31.3141538,32.5926154 C31.0338462,32.6658462 30.9796923,32.4603077 30.9501538,32.2735385 C30.9027692,31.9744615 30.8750769,31.6707692 30.8612308,31.368 C30.7929231,29.8846154 30.8363077,28.3987692 30.7676923,26.9147692 C30.7464615,26.4569231 30.7738462,25.9956923 30.9415385,25.5593846 C31.0384615,25.3070769 31.1723077,25.0849231 31.4935385,25.0855385 C31.5261538,25.0855385 31.5590769,25.0621538 31.5913846,25.0495385 C32.1384615,24.8332308 32.6766154,24.6070769 33.1655385,24.2646154 C33.5049231,24.0267692 33.8990769,23.8689231 34.2510769,23.6473846 C35.26,23.012 36.1246154,22.2403077 36.6027692,21.108 C37.0058462,20.1532308 37.1590769,19.1507692 37.1827692,18.1255385 C37.2107692,16.8996923 37.0664615,15.6861538 36.8852308,14.4756923 C36.6501538,12.9083077 36.3089231,11.3710769 35.6547692,9.916 Z M36.7581538,20.3796923 C36.6809231,20.5089231 36.64,20.6424615 36.6030769,20.7858462 C36.5369231,21.0427692 36.3427692,21.2243077 36.1541538,21.3873846 C35.7855385,21.7058462 35.5027692,22.1073846 35.1233846,22.4132308 C34.7064615,22.7492308 34.312,23.1181538 33.8249231,23.3541538 C33.2689231,23.624 32.7196923,23.9178462 32.1403077,24.1249231 C31.7544615,24.2627692 31.3741538,24.4806154 30.9070769,24.4230769 C30.6667692,24.4772308 30.3966154,24.5027692 30.1261538,24.4633846 C29.7206154,24.4043077 29.3163077,24.324 28.9110769,24.2806154 C28.3747692,24.2230769 27.8581538,24.0744615 27.3267692,24.0049231 C27.0858462,23.9735385 26.8873846,23.8529231 26.6747692,23.748 C26.4175385,23.6212308 26.156,23.5033846 25.908,23.3581538 C25.3052308,23.0049231 24.7304615,22.6178462 24.3055385,22.0464615 C24.264,21.9904615 24.2132308,21.9350769 24.1547692,21.8990769 C23.8673846,21.7215385 23.7027692,21.4756923 23.6252308,21.1403077 C23.5796923,20.9424615 23.4729231,20.7526154 23.3975385,20.5572308 C23.2230769,20.1052308 23.4403077,19.8178462 23.9436923,19.876 C24.3704615,19.9252308 24.8,19.896 25.224,19.8876923 C25.5449231,19.8812308 25.8544615,19.964 26.1689231,19.9378462 C26.4812308,19.912 26.7923077,19.9504615 27.1033846,19.9356923 C27.4187692,19.9206154 27.736,19.9138462 28.0483077,19.8729231 C28.5926154,19.8015385 29.1403077,19.8006154 29.6858462,19.7812308 C30.1923077,19.7633846 30.7003077,19.7461538 31.2092308,19.7535385 C31.6953846,19.7606154 32.1876923,19.7621538 32.6784615,19.7138462 C33.0270769,19.6793846 33.3864615,19.6612308 33.7461538,19.7196923 C33.9907692,19.7593846 34.2526154,19.7224615 34.5027692,19.6889231 C34.7150769,19.6603077 34.9255385,19.6747692 35.1273846,19.7086154 C35.3353846,19.7436923 35.5304615,19.7307692 35.7313846,19.6953846 C36.0895385,19.632 36.4172308,19.6455385 36.7055385,19.9326154 C36.8670769,20.0932308 36.8476923,20.2292308 36.7581538,20.3796923 Z" id="Shape"></path>
                        <path d="M37.8683077,17.1735385 C37.8181538,16.1427692 37.664,15.1286154 37.4741538,14.1175385 C37.1895385,12.6024615 36.7409231,11.1418462 36.0283077,9.76861538 C35.9184615,9.55692308 35.7993846,9.34553846 35.7270769,9.12030769 C35.5858462,8.67907692 35.436,8.25969231 35.0289231,7.97353846 C34.8987692,7.88215385 34.7756923,7.916 34.6523077,7.88430769 C33.4584615,7.57876923 32.2372308,7.45261538 31.0126154,7.36215385 C29.9824615,7.28615385 28.9501538,7.29230769 27.9187692,7.36092308 C27.0203077,7.42061538 26.1455385,7.59446154 25.2987692,7.90338462 C25.1769231,7.948 25.0643077,8.00492308 24.9963077,8.12153846 C24.8803077,8.32153846 24.76,8.51969231 24.6538462,8.72492308 C24.0492308,9.89538462 23.5129231,11.0963077 23.0867692,12.3436923 C22.6135385,13.728 22.2209231,15.1335385 22.1261538,16.6021538 C22.0455385,17.8526154 22.1692308,19.084 22.5529231,20.2830769 C22.8273846,21.1409231 23.1590769,21.9664615 23.776,22.6498462 C24.8249231,23.812 26.2332308,24.3707692 27.6350769,24.9215385 C28.1006154,25.1046154 28.5956923,25.2255385 29.0569231,25.4316923 C29.2181538,25.504 29.3495385,25.6175385 29.4550769,25.7670769 C29.6584615,26.0556923 29.7203077,26.3833846 29.7556923,26.7224615 C29.8396923,27.5246154 29.8695385,28.3295385 29.8898462,29.1353846 C29.9027692,29.644 29.9307692,30.152 29.952,30.6603077 C29.9375385,30.912 29.9443077,31.1624615 29.9950769,31.4104615 C29.9563077,31.6326154 29.9184615,31.8553846 29.8778462,32.0775385 C29.872,32.1098462 29.8587692,32.1618462 29.8387692,32.1673846 C29.5636923,32.2433846 29.3781538,32.4726154 29.1116923,32.5726154 C28.7030769,32.7258462 28.2929231,32.8707692 27.8716923,32.9809231 C27.3206154,33.1252308 26.7689231,33.2735385 26.2098462,33.3778462 C25.8944615,33.4366154 25.6012308,33.532 25.3270769,33.6849231 C25.0144615,33.8593846 25.0061538,34.0969231 25.2913846,34.3166154 C25.4655385,34.4507692 25.668,34.5313846 25.8741538,34.6015385 C26.7673846,34.9055385 27.7009231,34.9449231 28.628,34.9747692 C30.5507692,35.0363077 32.4713846,34.996 34.3772308,34.6870769 C34.9067692,34.6012308 35.4212308,34.4744615 35.9015385,34.2255385 C36.0701538,34.1381538 36.1667692,33.9947692 36.1624615,33.8258462 C36.1587692,33.6812308 35.9987692,33.6301538 35.8726154,33.5809231 C35.84,33.5683077 35.8073846,33.5547692 35.7741538,33.5436923 C34.932,33.2649231 34.0673846,33.0775385 33.1996923,32.9 C32.6624615,32.7901538 32.1236923,32.6747692 31.6276923,32.4313846 C31.4529231,32.3458462 31.2535385,32.2455385 31.2369231,32.012 C31.1944615,31.4187692 31.2233846,30.8246154 31.2267692,30.2310769 C31.2313846,29.4196923 31.2969231,28.6104615 31.2470769,27.7963077 C31.2076923,27.152 31.1849231,26.4996923 31.3215385,25.8587692 C31.3621538,25.6686154 31.3809231,25.4221538 31.5630769,25.3458462 C31.7572308,25.2643077 31.9473846,25.1676923 32.1412308,25.0858462 C32.8187692,24.8 33.5449231,24.6507692 34.1975385,24.288 C35.0895385,23.7926154 35.9184615,23.2258462 36.5781538,22.4418462 C37.4104615,21.4529231 37.7273846,20.264 37.8556923,19.0101538 C37.9178462,18.3993846 37.8981538,17.788 37.8683077,17.1735385 Z M26.9787692,7.94 C28.0236923,7.81046154 29.0729231,7.79015385 30.1224615,7.81969231 C30.9864615,7.844 31.8507692,7.89107692 32.7086154,8.01507692 C33.0452308,8.06369231 33.3858462,8.08676923 33.7246154,8.12123077 C33.7243077,8.13938462 33.7243077,8.15753846 33.724,8.176 C32.3981538,8.48553846 31.0612308,8.72153846 29.6953846,8.75569231 C28.3295385,8.78953846 26.9775385,8.69907692 25.6843077,8.26307692 C25.8667692,8.16615385 26.6575385,7.97969231 26.9787692,7.94 Z M37.1824615,18.1261538 C37.1590769,19.1513846 37.0058462,20.1538462 36.6024615,21.1086154 C36.1243077,22.2409231 35.2596923,23.0126154 34.2507692,23.648 C33.8987692,23.8695385 33.5046154,24.0276923 33.1652308,24.2652308 C32.6766154,24.6076923 32.1381538,24.8338462 31.5910769,25.0501538 C31.5584615,25.0630769 31.5258462,25.0864615 31.4932308,25.0861538 C31.172,25.0855385 31.0381538,25.3076923 30.9412308,25.56 C30.7735385,25.9963077 30.7461538,26.4575385 30.7673846,26.9153846 C30.836,28.3990769 30.7929231,29.8849231 30.8609231,31.3686154 C30.8747692,31.6713846 30.9024615,31.9750769 30.9498462,32.2741538 C30.9793846,32.4609231 31.0335385,32.6664615 31.3138462,32.5932308 C31.3421538,32.5858462 31.3824615,32.6064615 31.412,32.6233846 C32.1255385,33.028 32.9221538,33.16 33.708,33.3286154 C34.3661538,33.4698462 35.0230769,33.6172308 35.68,33.7630769 C35.6984615,33.7670769 35.7138462,33.7849231 35.7486154,33.8086154 C35.5516923,33.9963077 35.3009231,34.0538462 35.0673846,34.1283077 C34.4255385,34.3329231 33.7556923,34.3953846 33.0907692,34.4673846 C31.6766154,34.6203077 30.2563077,34.672 28.8344615,34.6378462 C27.9246154,34.6163077 27.0126154,34.5895385 26.1190769,34.3855385 C25.956,34.3483077 25.7987692,34.2836923 25.6403077,34.2267692 C25.5624615,34.1987692 25.464,34.1753846 25.46,34.0732308 C25.456,33.9756923 25.5523077,33.9381538 25.6175385,33.8883077 C25.8215385,33.7332308 26.0686154,33.7107692 26.3098462,33.6655385 C27.2206154,33.4950769 28.1298462,33.316 29.0003077,32.9870769 C29.3021538,32.8729231 29.6092308,32.764 29.8504615,32.5341538 C29.8704615,32.5150769 29.9009231,32.4855385 29.9193846,32.4898462 C30.2009231,32.5584615 30.1344615,32.34 30.1803077,32.1941538 C30.4061538,31.476 30.2372308,30.7467692 30.2550769,30.0230769 C30.26,29.8156923 30.2615385,29.6083077 30.2590769,29.4009231 C30.2476923,28.4966154 30.2803077,27.592 30.2193846,26.6876923 C30.1775385,26.068 29.8984615,25.5778462 29.3876923,25.2707692 C29.0729231,25.0815385 28.6830769,25.0070769 28.3301538,24.8753846 C26.9295385,24.3523077 25.5726154,23.7443077 24.4498462,22.7175385 C23.8116923,22.1338462 23.4513846,21.3846154 23.1723077,20.588 C22.9283077,19.8916923 22.7458462,19.1775385 22.6686154,18.4433846 C22.5963077,17.7569231 22.6150769,17.0707692 22.6926154,16.3812308 C22.952,14.0698462 23.7630769,11.9270769 24.6535385,9.80615385 C24.8021538,9.452 24.9455385,9.09538462 25.08,8.73538462 C25.1443077,8.56307692 25.244,8.52707692 25.4030769,8.596 C26.0473846,8.87446154 26.7243077,9.04092308 27.4116923,9.164 C27.6861538,9.21323077 27.9667692,9.232 28.2455385,9.252 C29.6747692,9.35507692 31.0870769,9.22923077 32.4883077,8.93815385 C33.1981538,8.79076923 33.8916923,8.59169231 34.5726154,8.34523077 C34.8498462,8.24492308 35.0744615,8.37538462 35.156,8.66246154 C35.2790769,9.09692308 35.4701538,9.50646154 35.6544615,9.91661538 C36.3086154,11.3716923 36.6495385,12.9089231 36.8846154,14.4769231 C37.0661538,15.6867692 37.2104615,16.9 37.1824615,18.1261538 Z" id="Shape" fill="#FE7202" fill-rule="nonzero"></path>
                        <path d="M35.7316923,19.6956923 C35.5304615,19.7310769 35.3356923,19.744 35.1276923,19.7089231 C34.9261538,19.6750769 34.7153846,19.6606154 34.5030769,19.6892308 C34.2529231,19.7227692 33.9910769,19.76 33.7464615,19.72 C33.3867692,19.6615385 33.0273846,19.6796923 32.6787692,19.7141538 C32.188,19.7627692 31.696,19.7609231 31.2095385,19.7538462 C30.7006154,19.7464615 30.1926154,19.7636923 29.6861538,19.7815385 C29.1406154,19.8009231 28.5926154,19.8018462 28.0486154,19.8732308 C27.7363077,19.9141538 27.4190769,19.9209231 27.1036923,19.936 C26.7926154,19.9507692 26.4818462,19.9123077 26.1692308,19.9381538 C25.8547692,19.9643077 25.5452308,19.8815385 25.2243077,19.888 C24.8003077,19.8963077 24.3707692,19.9255385 23.944,19.8763077 C23.4406154,19.8181538 23.2233846,20.1052308 23.3978462,20.5575385 C23.4732308,20.7529231 23.58,20.9427692 23.6255385,21.1406154 C23.7027692,21.476 23.8676923,21.7218462 24.1550769,21.8993846 C24.2135385,21.9353846 24.2643077,21.9907692 24.3058462,22.0467692 C24.7307692,22.6181538 25.3052308,23.0055385 25.9083077,23.3584615 C26.1563077,23.5036923 26.4178462,23.6215385 26.6750769,23.7483077 C26.8876923,23.8529231 27.0861538,23.9735385 27.3270769,24.0052308 C27.8584615,24.0747692 28.3750769,24.2230769 28.9113846,24.2809231 C29.3166154,24.3243077 29.7209231,24.4043077 30.1264615,24.4636923 C30.3972308,24.5030769 30.6670769,24.4775385 30.9073846,24.4233846 C31.3744615,24.4809231 31.7550769,24.2630769 32.1406154,24.1252308 C32.72,23.9181538 33.2692308,23.624 33.8252308,23.3544615 C34.312,23.1181538 34.7067692,22.7495385 35.1236923,22.4135385 C35.5030769,22.1076923 35.7858462,21.7061538 36.1544615,21.3876923 C36.3433846,21.2246154 36.5375385,21.0430769 36.6033846,20.7861538 C36.6403077,20.6427692 36.6812308,20.5092308 36.7584615,20.38 C36.8483077,20.2295385 36.8673846,20.0935385 36.7064615,19.9332308 C36.4175385,19.6455385 36.0898462,19.6323077 35.7316923,19.6956923 Z" id="Shape" fill="#FE7202" fill-rule="nonzero"></path>
                        <path d="M13.0743949,72.3587448 C7.7198593,73.2257161 7.20614269,73.9285804 6.57258302,81.2544798 C5.93902336,73.9285804 5.42530675,73.2257161 0.0712058824,72.3587448 C5.42545166,71.4914577 5.93916827,70.7889093 6.57258302,63.4630099 C7.20614269,70.7889093 7.7198593,71.4916156 13.0743949,72.3587448 Z" id="Shape" fill="#FFC79A" fill-rule="nonzero"></path>
                        <path d="M14.7743694,65.9803697 C12.4222864,66.36118 12.1969466,66.6699665 11.9184238,69.8878214 C11.6401909,66.6699665 11.4144164,66.3610221 9.06262322,65.9803697 C11.4144164,65.5994015 11.6401909,65.290773 11.9184238,62.072918 C12.1969466,65.290773 12.4222864,65.5994015 14.7743694,65.9803697 Z" id="Shape" fill="#FFC79A" fill-rule="nonzero"></path>
                        <path d="M90.0743949,9.35874483 C84.7198593,10.2257161 84.2061427,10.9285804 83.572583,18.2544798 C82.9390234,10.9285804 82.4253067,10.2257161 77.0712059,9.35874483 C82.4254517,8.49145767 82.9391683,7.78890926 83.572583,0.463009886 C84.2061427,7.78890926 84.7198593,8.49161561 90.0743949,9.35874483 Z" id="Shape" fill="#FFC79A" fill-rule="nonzero"></path>
                        <path d="M81.7743694,14.9803697 C79.4222864,15.36118 79.1969466,15.6699665 78.9184238,18.8878214 C78.6401909,15.6699665 78.4144164,15.3610221 76.0626232,14.9803697 C78.4144164,14.5994015 78.6401909,14.290773 78.9184238,11.072918 C79.1969466,14.290773 79.4222864,14.5994015 81.7743694,14.9803697 Z" id="Shape" fill="#FFC79A" fill-rule="nonzero"></path>
                        <path d="M112.074395,92.3587448 C106.719859,93.2257161 106.206143,93.9285804 105.572583,101.25448 C104.939023,93.9285804 104.425307,93.2257161 99.0712059,92.3587448 C104.425452,91.4914577 104.939168,90.7889093 105.572583,83.4630099 C106.206143,90.7889093 106.719859,91.4916156 112.074395,92.3587448 Z" id="Shape" fill="#FFC79A" fill-rule="nonzero"></path>
                        <path d="M103.774369,97.9803697 C101.422286,98.36118 101.196947,98.6699665 100.918424,101.887821 C100.640191,98.6699665 100.414416,98.3610221 98.0626232,97.9803697 C100.414416,97.5994015 100.640191,97.290773 100.918424,94.072918 C101.196947,97.290773 101.422286,97.5994015 103.774369,97.9803697 Z" id="Shape" fill="#FFC79A" fill-rule="nonzero"></path>
                    </g>
                </g>
            </g>
        </g>
    </g>
</svg>