<?xml version="1.0" encoding="UTF-8"?>
<svg width="551px" height="551px" viewBox="0 0 551 551" version="1.1" xmlns="http://www.w3.org/2000/svg" xmlns:xlink="http://www.w3.org/1999/xlink">
    <!-- Generator: Sketch 45.2 (43514) - http://www.bohemiancoding.com/sketch -->
    <title>Group 3</title>
    <desc>Created with Sketch.</desc>
    <defs>
        <circle id="path-1" cx="275.5" cy="275.5" r="275.5"></circle>
        <linearGradient x1="50%" y1="0%" x2="50%" y2="100%" id="linearGradient-3">
            <stop stop-color="#F9F9FA" offset="0%"></stop>
            <stop stop-color="#F0F0F3" offset="100%"></stop>
        </linearGradient>
        <rect id="path-4" x="0" y="0" width="483" height="45" rx="22.5"></rect>
    </defs>
    <g id="Page-1" stroke="none" stroke-width="1" fill="none" fill-rule="evenodd">
        <g id="Introductie" transform="translate(-642.000000, -572.000000)">
            <g id="Group-3" transform="translate(642.000000, 572.000000)">
                <g id="Rectangle-5" transform="translate(40.000000, 51.000000)"></g>
                <g id="Group-2">
                    <mask id="mask-2" fill="white">
                        <use xlink:href="#path-1"></use>
                    </mask>
                    <use id="Oval-2" fill="#F7F7F7" xlink:href="#path-1"></use>
                    <rect id="Rectangle-8" fill="url(#linearGradient-3)" mask="url(#mask-2)" x="-11" y="243" width="562" height="308"></rect>
                </g>
                <g id="ipad" transform="translate(146.000000, 219.000000) rotate(-107.000000) translate(-146.000000, -219.000000) translate(123.000000, 187.000000)" stroke="#FE7202" fill-rule="nonzero" fill="#FE7202">
                    <path d="M3.45,52.992 L42.55,52.992 L42.55,9.408 L3.45,9.408 L3.45,52.992 Z M4.72777778,10.688 L41.3361111,10.688 L41.3361111,51.776 L4.72777778,51.776 L4.72777778,10.688 Z" id="Shape"></path>
                    <path d="M38.7805556,0 L7.21944444,0 C3.45,0 0.319444444,3.072 0.319444444,6.912 L0.319444444,57.088 C0.319444444,60.864 3.38611111,64 7.21944444,64 L38.7805556,64 C42.55,64 45.6805556,60.928 45.6805556,57.088 L45.6805556,6.912 C45.6805556,3.072 42.6138889,0 38.7805556,0 Z M44.4027778,57.088 C44.4027778,60.224 41.8472222,62.72 38.7805556,62.72 L7.21944444,62.72 C4.08888889,62.72 1.59722222,60.16 1.59722222,57.088 L1.59722222,6.912 C1.59722222,3.776 4.15277778,1.28 7.21944444,1.28 L38.7805556,1.28 C41.9111111,1.28 44.4027778,3.84 44.4027778,6.912 L44.4027778,57.088 Z" id="Shape"></path>
                    <path d="M17.8888889,6.912 L28.1111111,6.912 C28.75,6.912 29.2611111,6.4 29.2611111,5.76 C29.2611111,5.12 28.75,4.608 28.1111111,4.608 L17.8888889,4.608 C17.25,4.608 16.7388889,5.12 16.7388889,5.76 C16.7388889,6.4 17.25,6.912 17.8888889,6.912 Z" id="Shape"></path>
                    <ellipse id="Oval" cx="23" cy="57.856" rx="2.36388889" ry="2.368"></ellipse>
                </g>
                <path d="M289.403748,188.674189 C282.810748,186.540189 276.151748,185.293189 269.243748,184.812189 C266.255748,184.604189 265.481748,188.779189 267.783748,190.201189 C270.347748,191.784189 272.985748,192.990189 275.715748,193.872189 C263.017748,200.446189 253.501748,212.093189 249.101748,225.990189 C244.609748,240.176189 242.831748,264.940189 256.921748,274.562189 C258.269748,275.483189 259.437748,273.552189 258.545748,272.458189 C248.740748,260.426189 249.775748,240.288189 254.702748,226.445189 C259.122748,214.026189 268.004748,203.763189 279.736748,198.248189 C278.592748,200.002189 277.539748,201.816189 276.609748,203.708189 C275.021748,206.938189 279.608748,209.713189 281.481748,206.556189 C284.241748,201.905189 287.070748,197.584189 290.684748,193.528189 C292.164748,191.866189 291.547748,189.369189 289.403748,188.674189 Z" id="Shape" fill="#FAB477" fill-rule="nonzero" transform="translate(268.673380, 229.804291) rotate(110.000000) translate(-268.673380, -229.804291) "></path>
                <g id="Box" transform="translate(211.000000, 282.000000)" stroke="#FE7202" fill-rule="nonzero" fill="#FE7202">
                    <path d="M158,0.487179487 L113.030769,0.487179487 L99.9046154,28.7435897 L86.7784615,0.487179487 L0,0.487179487 L15.3138462,33.3717949 L15.3138462,94.5128205 L142.686154,94.5128205 L142.686154,33.3717949 L158,0.487179487 Z M115.218462,4.14102564 L152.409231,4.14102564 L139.769231,31.1794872 L102.821538,31.1794872 L115.218462,4.14102564 Z M84.5907692,4.14102564 L97.2307692,31.1794872 L18.2307692,31.1794872 L5.59076923,4.14102564 L84.5907692,4.14102564 Z M98.2030769,90.8589744 L18.96,90.8589744 L18.96,34.8333333 L98.2030769,34.8333333 L98.2030769,90.8589744 Z M139.04,90.8589744 L101.606154,90.8589744 L101.606154,34.8333333 L139.04,34.8333333 L139.04,90.8589744 L139.04,90.8589744 Z" id="Shape"></path>
                    <rect id="Rectangle-path" x="26.0369231" y="80.8461538" width="3.64615385" height="3.65384615"></rect>
                    <rect id="Rectangle-path" x="33.0861538" y="80.8461538" width="3.64615385" height="3.65384615"></rect>
                    <rect id="Rectangle-path" x="40.3784615" y="80.8461538" width="3.64615385" height="3.65384615"></rect>
                </g>
                <g id="Band" transform="translate(34.000000, 372.000000)">
                    <g id="Rectangle-2">
                        <use fill="#F7F7F7" fill-rule="evenodd" xlink:href="#path-4"></use>
                        <rect stroke="#CBCBCE" stroke-width="4" x="2" y="2" width="479" height="41" rx="20.5"></rect>
                    </g>
                    <circle id="Oval" stroke="#AAAAAF" stroke-width="3" cx="21.5" cy="22.5" r="18.5"></circle>
                    <circle id="Oval" stroke="#AAAAAF" stroke-width="3" cx="61.5" cy="22.5" r="18.5"></circle>
                    <circle id="Oval" stroke="#AAAAAF" stroke-width="3" cx="101.5" cy="22.5" r="18.5"></circle>
                    <circle id="Oval" stroke="#AAAAAF" stroke-width="3" cx="141.5" cy="22.5" r="18.5"></circle>
                    <circle id="Oval" stroke="#AAAAAF" stroke-width="3" cx="181.5" cy="22.5" r="18.5"></circle>
                    <circle id="Oval" stroke="#AAAAAF" stroke-width="3" cx="221.5" cy="22.5" r="18.5"></circle>
                    <circle id="Oval" stroke="#AAAAAF" stroke-width="3" cx="261.5" cy="22.5" r="18.5"></circle>
                    <circle id="Oval" stroke="#AAAAAF" stroke-width="3" cx="301.5" cy="22.5" r="18.5"></circle>
                    <circle id="Oval" stroke="#AAAAAF" stroke-width="3" cx="341.5" cy="22.5" r="18.5"></circle>
                    <circle id="Oval" stroke="#AAAAAF" stroke-width="3" cx="381.5" cy="22.5" r="18.5"></circle>
                    <circle id="Oval" stroke="#AAAAAF" stroke-width="3" cx="421.5" cy="22.5" r="18.5"></circle>
                    <circle id="Oval" stroke="#AAAAAF" stroke-width="3" cx="461.5" cy="22.5" r="18.5"></circle>
                </g>
                <g id="phone" transform="translate(362.500000, 210.000000) rotate(20.000000) translate(-362.500000, -210.000000) translate(346.000000, 181.000000)" stroke="#FE7202">
                    <path d="M28.1223462,1.03562222 L4.87765385,1.03562222 C3.09692308,1.03562222 1.64809615,2.66091111 1.64809615,4.65933333 L1.64809615,53.3419556 C1.64809615,55.3397333 3.09692308,56.9656667 4.87765385,56.9656667 L28.1229808,56.9656667 C29.9037115,56.9656667 31.3525385,55.3397333 31.3525385,53.3419556 L31.3525385,4.65868889 C31.3519038,2.66091111 29.9030769,1.03562222 28.1223462,1.03562222 Z M15.6274038,4.02455556 C15.6274038,3.80415556 15.8044615,3.625 16.0208654,3.625 L16.9778654,3.625 C17.1942692,3.625 17.3713269,3.80415556 17.3713269,4.02455556 L17.3713269,4.72442222 C17.3713269,4.94353333 17.1942692,5.12397778 16.9778654,5.12397778 L16.0208654,5.12397778 C15.8050962,5.12397778 15.6274038,4.94353333 15.6274038,4.72442222 L15.6274038,4.02455556 Z M18.2439231,53.5443111 C18.2439231,53.9831778 17.8898077,54.3434222 17.4563654,54.3434222 L15.5423654,54.3434222 C15.1095577,54.3434222 14.7554423,53.9831778 14.7554423,53.5443111 L14.7554423,52.1452222 C14.7554423,51.7050667 15.1095577,51.3461111 15.5423654,51.3461111 L17.4563654,51.3461111 C17.8891731,51.3461111 18.2439231,51.7050667 18.2439231,52.1452222 L18.2439231,53.5443111 Z M29.7374423,47.3389556 C29.7374423,47.9099333 29.2779808,48.3745778 28.7131731,48.3745778 L4.28682692,48.3745778 C3.72201923,48.3745778 3.26255769,47.9099333 3.26255769,47.3389556 L3.26255769,7.94922222 C3.26255769,7.37824444 3.72201923,6.9136 4.28682692,6.9136 L28.7131731,6.9136 C29.2779808,6.9136 29.7374423,7.3776 29.7374423,7.94922222 L29.7374423,47.3389556 Z" id="Shape"></path>
                    <path d="M4.28682692,7.94922222 L4.28238462,47.3396 L28.7131731,47.3396 C28.7169808,47.3396 28.7195192,47.3363778 28.7195192,47.3363778 L28.71825,7.94986667 L4.28682692,7.94986667 L4.28682692,7.94922222 Z" id="Shape"></path>
                    <path d="M17.4563654,51.3461111 L15.5423654,51.3461111 C15.1095577,51.3461111 14.7554423,51.7050667 14.7554423,52.1452222 L14.7554423,53.5443111 C14.7554423,53.9831778 15.1095577,54.3434222 15.5423654,54.3434222 L17.4563654,54.3434222 C17.8891731,54.3434222 18.2439231,53.9831778 18.2439231,53.5443111 L18.2439231,52.1452222 C18.2439231,51.7050667 17.8898077,51.3461111 17.4563654,51.3461111 Z" id="Shape" fill="#FE7202" fill-rule="nonzero"></path>
                    <path d="M16.0208654,5.12397778 L16.9778654,5.12397778 C17.1942692,5.12397778 17.3713269,4.94353333 17.3713269,4.72442222 L17.3713269,4.02455556 C17.3713269,3.80415556 17.1942692,3.625 16.9778654,3.625 L16.0208654,3.625 C15.8050962,3.625 15.6274038,3.80415556 15.6274038,4.02455556 L15.6274038,4.72442222 C15.6274038,4.94353333 15.8050962,5.12397778 16.0208654,5.12397778 Z" id="Shape" fill="#FE7202" fill-rule="nonzero"></path>
                    <path d="M28.1223462,0 L4.87765385,0 C2.53465385,0 0.628903846,2.08993333 0.628903846,4.65868889 L0.628903846,53.3413111 C0.628903846,55.9100667 2.53465385,58 4.87765385,58 L28.1229808,58 C30.4653462,58 32.3717308,55.9100667 32.3717308,53.3413111 L32.3717308,4.65868889 C32.3710962,2.08993333 30.4653462,0 28.1223462,0 Z M31.3519038,53.3413111 C31.3519038,55.3390889 29.9030769,56.9650222 28.1223462,56.9650222 L4.87765385,56.9650222 C3.09692308,56.9650222 1.64809615,55.3390889 1.64809615,53.3413111 L1.64809615,4.65868889 C1.64809615,2.66091111 3.09692308,1.03497778 4.87765385,1.03497778 L28.1229808,1.03497778 C29.9037115,1.03497778 31.3525385,2.66026667 31.3525385,4.65868889 L31.3525385,53.3413111 L31.3519038,53.3413111 Z" id="Shape" fill="#FE7202" fill-rule="nonzero"></path>
                    <path d="M28.7131731,6.9136 L4.28682692,6.9136 C3.72201923,6.9136 3.26255769,7.3776 3.26255769,7.94922222 L3.26255769,47.3396 C3.26255769,47.9105778 3.72201923,48.3752222 4.28682692,48.3752222 L28.7131731,48.3752222 C29.2779808,48.3752222 29.7374423,47.9105778 29.7374423,47.3396 L29.7374423,7.94922222 C29.7374423,7.37824444 29.2779808,6.9136 28.7131731,6.9136 Z M28.7131731,47.3389556 L4.28175,47.3389556 L4.28619231,7.94857778 L28.7176154,7.94857778 L28.7188846,47.3350889 C28.7188846,47.3357333 28.7169808,47.3389556 28.7131731,47.3389556 Z" id="Shape" fill="#FE7202" fill-rule="nonzero"></path>
                </g>
                <g id="printer" transform="translate(215.000000, 81.000000)" stroke="#FE7202" fill-rule="nonzero" fill="#FE7202">
                    <path d="M9.97674419,1.04165941 L9.97674419,18.6298947 L2.30232558,18.6298947 C1.04011395,18.6298947 0,19.6663006 0,20.9240124 L0,46.9240353 C0,48.1817471 1.04011395,49.2181529 2.30232558,49.2181529 L9.97674419,49.2181529 L9.97674419,63.7475647 C9.97678256,64.1479647 10.3423688,64.5121941 10.744186,64.5122706 L55.255814,64.5122706 C55.6576312,64.5121941 56.0232174,64.1479647 56.0232558,63.7475647 L56.0232558,49.2181529 L63.6976744,49.2181529 C64.959886,49.2181529 66,48.1817471 66,46.9240353 L66,20.9240124 C66,19.6663006 64.959886,18.6298947 63.6976744,18.6298947 L56.0232558,18.6298947 L56.0232558,1.04165941 C56.0232174,0.641259412 55.6576312,0.27703 55.255814,0.276953529 L10.744186,0.276953529 C10.2358633,0.284600588 9.99154814,0.705571176 9.97674419,1.04165941 Z M11.5116279,1.80636529 L54.4883721,1.80636529 L54.4883721,18.6298947 L11.5116279,18.6298947 L11.5116279,1.80636529 Z M2.30232558,20.1593065 L63.6976744,20.1593065 C64.136206,20.1593065 64.4651163,20.4870594 64.4651163,20.9240124 L64.4651163,46.9240353 C64.4651163,47.3609882 64.136206,47.6887412 63.6976744,47.6887412 L56.0232558,47.6887412 L56.0232558,39.2769765 C56.0232174,38.8765765 55.6576312,38.5123471 55.255814,38.5122706 L10.744186,38.5122706 C10.3423688,38.5123471 9.97678256,38.8765765 9.97674419,39.2769765 L9.97674419,47.6887412 L2.30232558,47.6887412 C1.86379395,47.6887412 1.53488372,47.3609882 1.53488372,46.9240353 L1.53488372,20.9240124 C1.53488372,20.4870594 1.86379395,20.1593065 2.30232558,20.1593065 Z M47.5813953,23.9828359 C46.309867,23.9828359 45.2790698,25.0099888 45.2790698,26.2769535 C45.2790698,27.5439182 46.309867,28.5710712 47.5813953,28.5710712 C48.8529237,28.5710712 49.8837209,27.5439182 49.8837209,26.2769535 C49.8837209,25.0099888 48.8529237,23.9828359 47.5813953,23.9828359 Z M55.255814,23.9828359 C53.9842856,23.9828359 52.9534884,25.0099888 52.9534884,26.2769535 C52.9534884,27.5439182 53.9842856,28.5710712 55.255814,28.5710712 C56.5273423,28.5710712 57.5581395,27.5439182 57.5581395,26.2769535 C57.5581395,25.0099888 56.5273423,23.9828359 55.255814,23.9828359 Z M11.5116279,40.0416824 L54.4883721,40.0416824 L54.4883721,62.9828588 L11.5116279,62.9828588 L11.5116279,40.0416824 Z M16.8837209,44.6299176 C16.4598781,44.6299176 16.1162791,44.9722765 16.1162791,45.3946235 C16.1162791,45.8169706 16.4598781,46.1593294 16.8837209,46.1593294 L49.1162791,46.1593294 C49.5401219,46.1593294 49.8837209,45.8169706 49.8837209,45.3946235 C49.8837209,44.9722765 49.5401219,44.6299176 49.1162791,44.6299176 L16.8837209,44.6299176 Z M16.8837209,50.7475647 C16.4598781,50.7475647 16.1162791,51.0899235 16.1162791,51.5122706 C16.1162791,51.9346176 16.4598781,52.2769765 16.8837209,52.2769765 L49.1162791,52.2769765 C49.5401219,52.2769765 49.8837209,51.9346176 49.8837209,51.5122706 C49.8837209,51.0899235 49.5401219,50.7475647 49.1162791,50.7475647 L16.8837209,50.7475647 Z M16.8837209,56.8652118 C16.4598781,56.8652118 16.1162791,57.2075706 16.1162791,57.6299176 C16.1162791,58.0522647 16.4598781,58.3946235 16.8837209,58.3946235 L49.1162791,58.3946235 C49.5401219,58.3946235 49.8837209,58.0522647 49.8837209,57.6299176 C49.8837209,57.2075706 49.5401219,56.8652118 49.1162791,56.8652118 L16.8837209,56.8652118 Z" id="Shape"></path>
                </g>
                <g id="twikles" transform="translate(62.000000, 103.000000)" fill-rule="nonzero" fill="#FFC79A">
                    <path d="M83.8235294,27.1540984 C74.0426471,28.5938361 73.1042647,29.7610492 71.9469706,41.9268197 C70.7896765,29.7610492 69.8512941,28.5938361 60.0712059,27.1540984 C69.8515588,25.7138361 70.7899412,24.5471475 71.9469706,12.381377 C73.1042647,24.5471475 74.0426471,25.7140984 83.8235294,27.1540984 Z" id="Shape"></path>
                    <path d="M86.9287941,16.5618361 C82.6323529,17.1942295 82.2207353,17.7070164 81.7119706,23.0507541 C81.2037353,17.7070164 80.7913235,17.1939672 76.4954118,16.5618361 C80.7913235,15.9291803 81.2037353,15.4166557 81.7119706,10.072918 C82.2207353,15.4166557 82.6323529,15.9291803 86.9287941,16.5618361 Z" id="Shape"></path>
                    <path d="M13.0743949,170.358745 C7.7198593,171.225716 7.20614269,171.92858 6.57258302,179.25448 C5.93902336,171.92858 5.42530675,171.225716 0.0712058824,170.358745 C5.42545166,169.491458 5.93916827,168.788909 6.57258302,161.46301 C7.20614269,168.788909 7.7198593,169.491616 13.0743949,170.358745 Z" id="Shape"></path>
                    <path d="M14.7743694,163.98037 C12.4222864,164.36118 12.1969466,164.669966 11.9184238,167.887821 C11.6401909,164.669966 11.4144164,164.361022 9.06262322,163.98037 C11.4144164,163.599401 11.6401909,163.290773 11.9184238,160.072918 C12.1969466,163.290773 12.4222864,163.599401 14.7743694,163.98037 Z" id="Shape"></path>
                    <path d="M373.074395,190.358745 C367.719859,191.225716 367.206143,191.92858 366.572583,199.25448 C365.939023,191.92858 365.425307,191.225716 360.071206,190.358745 C365.425452,189.491458 365.939168,188.788909 366.572583,181.46301 C367.206143,188.788909 367.719859,189.491616 373.074395,190.358745 Z" id="Shape"></path>
                    <path d="M374.774369,183.98037 C372.422286,184.36118 372.196947,184.669966 371.918424,187.887821 C371.640191,184.669966 371.414416,184.361022 369.062623,183.98037 C371.414416,183.599401 371.640191,183.290773 371.918424,180.072918 C372.196947,183.290773 372.422286,183.599401 374.774369,183.98037 Z" id="Shape"></path>
                    <path d="M294.774369,11.1624021 C288.719808,12.097112 288.13893,12.8548928 287.422542,20.753183 C286.706154,12.8548928 286.125276,12.097112 280.071206,11.1624021 C286.12544,10.2273516 286.706317,9.46991136 287.422542,1.57162122 C288.13893,9.46991136 288.719808,10.2275219 294.774369,11.1624021 Z" id="Shape"></path>
                    <path d="M296.69659,4.28566866 C294.037007,4.69623262 293.782208,5.02914533 293.467272,8.49841929 C293.152664,5.02914533 292.897373,4.69606233 290.238118,4.28566866 C292.897373,3.87493441 293.152664,3.54219199 293.467272,0.0729180328 C293.782208,3.54219199 294.037007,3.87493441 296.69659,4.28566866 Z" id="Shape"></path>
                </g>
                <g id="Air" transform="translate(85.000000, 32.000000)" fill="#FEA157">
                    <rect id="Rectangle-7" x="12" y="300" width="67" height="6" rx="3"></rect>
                    <rect id="Rectangle-7" x="0" y="290" width="39" height="6" rx="3"></rect>
                    <rect id="Rectangle-7" x="19" y="280" width="27" height="6" rx="3"></rect>
                    <rect id="Rectangle-7" x="313" y="130" width="67" height="6" rx="3"></rect>
                    <rect id="Rectangle-7" x="301" y="120" width="39" height="6" rx="3"></rect>
                    <rect id="Rectangle-7" x="320" y="110" width="27" height="6" rx="3"></rect>
                    <rect id="Rectangle-7" x="101" y="10" width="39" height="6" rx="3"></rect>
                    <rect id="Rectangle-7" x="120" y="0" width="27" height="6" rx="3"></rect>
                </g>
            </g>
        </g>
    </g>
</svg>