<?xml version="1.0" encoding="UTF-8"?>
<svg width="117px" height="115px" viewBox="0 0 117 115" version="1.1" xmlns="http://www.w3.org/2000/svg" xmlns:xlink="http://www.w3.org/1999/xlink">
    <!-- Generator: Sketch 45.2 (43514) - http://www.bohemiancoding.com/sketch -->
    <title>Retail</title>
    <desc>Created with Sketch.</desc>
    <defs></defs>
    <g id="Page-1" stroke="none" stroke-width="1" fill="none" fill-rule="evenodd">
        <g id="Stap-1-" transform="translate(-499.000000, -719.000000)">
            <g id="Options" transform="translate(136.000000, 687.000000)">
                <g id="Retail" transform="translate(293.000000, 0.000000)">
                    <g transform="translate(70.000000, 32.000000)">
                        <path d="M45.1611111,100.233333 C44.9444444,100.233333 44.8,100.377778 44.8,100.594444 L44.8,104.313889 C44.8,104.530556 44.9444444,104.675 45.1611111,104.675 L46.3166667,104.675 L48.375,113.775 C48.4111111,113.955556 48.5555556,114.063889 48.7361111,114.063889 L59.1,114.063889 C59.2805556,114.063889 59.425,113.955556 59.4611111,113.775 L61.4833333,104.675 L62.6388889,104.675 C62.8555556,104.675 63,104.530556 63,104.313889 L63,100.594444 C63,100.377778 62.8555556,100.233333 62.6388889,100.233333 L54.2611111,100.233333 L54.2611111,90.8444444 L55.1638889,90.8083333 C58.5944444,90.7 61.375,87.9194444 61.4472222,84.525 L61.4833333,83.2611111 C61.4833333,83.1527778 61.4472222,83.0805556 61.375,83.0083333 C61.3027778,82.9361111 61.1944444,82.9 61.1222222,82.9 L59.8583333,82.9361111 C56.4277778,83.0444444 53.6472222,85.825 53.575,89.2194444 L53.5388889,90.4833333 C53.5388889,90.4833333 53.5388889,90.4833333 53.5388889,90.4833333 L53.5388889,90.4833333 L53.5388889,92.1083333 C52.4916667,90.0138889 50.3972222,88.5694444 47.9055556,88.4972222 L46.6416667,88.4611111 C46.5333333,88.4611111 46.4611111,88.4972222 46.3888889,88.5694444 C46.3166667,88.6416667 46.2805556,88.75 46.2805556,88.8222222 L46.3166667,90.0861111 C46.425,93.5166667 49.2055556,96.2972222 52.6,96.3694444 L53.5027778,96.4055556 L53.5027778,100.197222 L45.1611111,100.197222 L45.1611111,100.233333 Z M52.6361111,95.6833333 C49.6027778,95.575 47.1472222,93.1194444 47.0388889,90.0861111 L47.0027778,89.1833333 L47.9055556,89.2194444 C50.9388889,89.3277778 53.3944444,91.7833333 53.5027778,94.8166667 L53.5388889,95.7194444 L52.6361111,95.6833333 Z M54.2972222,89.2194444 C54.4055556,86.1861111 56.8611111,83.7305556 59.8944444,83.6222222 L60.7972222,83.5861111 L60.7611111,84.4888889 C60.6527778,87.5222222 58.1972222,89.9777778 55.1638889,90.0861111 L54.2611111,90.1222222 L54.2972222,89.2194444 Z M58.775,113.341667 L49.025,113.341667 L47.075,104.675 L60.7611111,104.675 L58.775,113.341667 Z M62.2777778,103.952778 L45.5222222,103.952778 L45.5222222,100.955556 L62.2416667,100.955556 L62.2416667,103.952778 L62.2777778,103.952778 Z" id="Shape" fill="#FE7202" fill-rule="nonzero"></path>
                        <path d="M13.0743949,90.3587448 C7.7198593,91.2257161 7.20614269,91.9285804 6.57258302,99.2544798 C5.93902336,91.9285804 5.42530675,91.2257161 0.0712058824,90.3587448 C5.42545166,89.4914577 5.93916827,88.7889093 6.57258302,81.4630099 C7.20614269,88.7889093 7.7198593,89.4916156 13.0743949,90.3587448 Z" id="Shape" fill="#FFC79A" fill-rule="nonzero"></path>
                        <path d="M14.7743694,83.9803697 C12.4222864,84.36118 12.1969466,84.6699665 11.9184238,87.8878214 C11.6401909,84.6699665 11.4144164,84.3610221 9.06262322,83.9803697 C11.4144164,83.5994015 11.6401909,83.290773 11.9184238,80.072918 C12.1969466,83.290773 12.4222864,83.5994015 14.7743694,83.9803697 Z" id="Shape" fill="#FFC79A" fill-rule="nonzero"></path>
                        <path d="M103.074395,100.358745 C97.7198593,101.225716 97.2061427,101.92858 96.572583,109.25448 C95.9390234,101.92858 95.4253067,101.225716 90.0712059,100.358745 C95.4254517,99.4914577 95.9391683,98.7889093 96.572583,91.4630099 C97.2061427,98.7889093 97.7198593,99.4916156 103.074395,100.358745 Z" id="Shape" fill="#FFC79A" fill-rule="nonzero"></path>
                        <path d="M104.774369,93.9803697 C102.422286,94.36118 102.196947,94.6699665 101.918424,97.8878214 C101.640191,94.6699665 101.414416,94.3610221 99.0626232,93.9803697 C101.414416,93.5994015 101.640191,93.290773 101.918424,90.072918 C102.196947,93.290773 102.422286,93.5994015 104.774369,93.9803697 Z" id="Shape" fill="#FFC79A" fill-rule="nonzero"></path>
                        <path d="M83.0743949,10.3587448 C77.7198593,11.2257161 77.2061427,11.9285804 76.572583,19.2544798 C75.9390234,11.9285804 75.4253067,11.2257161 70.0712059,10.3587448 C75.4254517,9.49145767 75.9391683,8.78890926 76.572583,1.46300989 C77.2061427,8.78890926 77.7198593,9.49161561 83.0743949,10.3587448 Z" id="Shape" fill="#FFC79A" fill-rule="nonzero"></path>
                        <path d="M84.7743694,3.98036973 C82.4222864,4.36118003 82.1969466,4.66996648 81.9184238,7.88782142 C81.6401909,4.66996648 81.4144164,4.36102208 79.0626232,3.98036973 C81.4144164,3.59940148 81.6401909,3.29077297 81.9184238,0.0729180328 C82.1969466,3.29077297 82.4222864,3.59940148 84.7743694,3.98036973 Z" id="Shape" fill="#FFC79A" fill-rule="nonzero"></path>
                        <path d="M36.2212955,70.2118466 C33.9250281,70.2118466 32.3413217,69.6856038 31.3464384,69.3023 C27.8056779,67.9383356 26.8235951,63.962358 29.6183709,61.4036803 C31.2824359,59.8782874 33.4819885,58.8670479 35.5620698,57.8799871 C42.9934712,54.3541604 50.4824749,50.952072 57.9231212,47.4447349 C58.3298926,47.2527274 58.7174633,46.5294992 58.6982626,46.0701035 C58.6811952,45.6505315 58.183398,45.0723756 57.7552924,44.8775235 C54.9420269,43.5960513 53.4258788,41.0459072 53.7266905,37.9176072 C53.9940788,35.126387 55.9433105,33.1174197 59.0154305,32.4667276 C62.4224969,31.7456327 64.8595699,32.5876212 66.4404317,35.110742 C66.800268,35.6853422 67.128103,36.3616353 67.2553969,36.9931266 C67.4459821,37.8180477 67.5995881,38.7375503 66.5023008,39.0568517 C65.5550638,39.2268139 65.1746045,38.264643 64.900816,37.6843536 C63.9784688,35.7358331 62.5384126,34.639968 60.6780732,34.7601505 C58.3220701,34.9123342 56.9069037,36.0501565 56.4083953,38.1942402 C55.8871305,40.4350389 57.3478098,42.7071276 59.6305656,43.005806 C61.0684885,43.1942578 61.6829125,43.9245974 61.5300176,45.2878507 C61.3813896,46.6176804 61.9026544,47.2961069 63.1272356,47.8991527 C71.0834575,51.8189503 78.9884775,55.8397296 86.9084313,59.8285076 C87.8350453,60.2950148 88.8199727,60.6797409 89.6648057,61.2642971 C91.7434647,62.7015088 92.4489144,64.7858569 91.7228416,66.962653 C91.0145473,69.0846915 89.3156365,70.2104243 86.7640701,70.2125578 L36.2212955,70.2125578 L36.2212955,70.2118466 Z M86.8671853,67.6105005 C88.1045669,67.6133451 89.2110991,67.5116522 89.5702242,66.1547992 C89.9435721,64.7438997 89.272257,63.6480346 87.8378899,62.9368957 C79.6149908,58.8606476 71.3728911,54.822801 63.2026163,50.639882 C61.1516917,49.5895298 59.4278911,49.4849924 57.3520766,50.5545453 C53.2303156,52.6794283 48.987661,54.5675021 44.7940749,56.5522908 C40.6865367,58.4965445 36.5875321,60.4614213 32.4636376,62.370118 C31.0790502,63.0087208 30.5641856,64.0910742 30.724903,65.4799284 C30.8849093,66.8659381 32.0291318,67.2207964 33.1946884,67.4241822 C33.7756889,67.525875 34.3687787,67.6105005 34.9568906,67.6105005 L86.8671853,67.6105005 Z" id="Shape" fill="#FE7202" fill-rule="nonzero"></path>
                        <path d="M26,3.75855667 C21.03176,3.75855667 17,7.82953667 17,12.8418567 C17,15.01921 18.1316067,16.94792 19.21875,18.70272 C20.3058933,20.4575533 21.3333333,22.0546533 21.3333333,23.4477533 C21.3332933,24.4877533 21.3333333,25.5340867 21.3333333,26.5762867 C21.3333333,27.3616867 21.54585,28.01732 22,28.4638867 C22.3364,28.7946533 22.7864767,28.9970533 23.3229167,29.0791533 C23.4844733,30.2102533 24.62562,31.0918867 26,31.0918867 C27.37438,31.0918867 28.5155267,30.2102533 28.6770833,29.0791533 C29.2188033,28.9990533 29.67249,28.79882 30.0104167,28.4638867 C30.4609867,28.01732 30.6666667,27.3616867 30.6666667,26.5762867 C30.66667,25.53542 30.6666667,24.48452 30.6666667,23.44772 C30.6666367,22.0546533 31.6941233,20.4579533 32.78125,18.70272 C33.8683767,16.9474867 35,15.0175167 35,12.84184 C35,7.82952 30.9681433,3.75854 26,3.75854 L26,3.75855667 Z M26,4.42598667 C30.6047233,4.42598667 34.3333333,8.18714 34.3333333,12.8418567 C34.3333333,14.7830933 33.29824,16.60526 32.21875,18.3481533 C31.2100533,19.9767533 30.18662,21.52752 30.0520833,23.11402 C29.01558,23.11402 27.66717,23.10702 26.3333333,23.1036867 L26.3333333,14.1038133 L30,14.1038133 C30.1761033,14.1061467 30.33808,13.9464233 30.33808,13.7701 C30.33808,13.5937733 30.1761033,13.4338933 30,13.4363833 C27.3142867,13.4363833 24.61849,13.4363833 21.9375,13.4363833 C21.7629667,13.4527833 21.6190533,13.6266533 21.6354167,13.8013867 C21.6517833,13.9761167 21.8254667,14.1201967 22,14.1038133 L25.6666667,14.1038133 L25.6666667,23.1036867 C24.30816,23.1003533 22.9564767,23.1003533 21.9479167,23.11402 C21.8133467,21.52762 20.7899333,19.97632 19.78125,18.3481533 C18.7017767,16.6057267 17.6666667,14.7849767 17.6666667,12.8418567 C17.6666667,8.18714 21.3951733,4.42598667 26,4.42598667 Z M30,23.7814533 L30,25.78372 L22,25.78372 L22,23.7814533 C24.6192033,23.7557867 27.3997367,23.77812 30,23.7814533 L30,23.7814533 Z M22,26.4511867 L30,26.4511867 C29.9800333,26.9955533 29.8771567,27.6389867 29.5416667,27.9841867 C29.2465033,28.27672 28.7812933,28.4534533 28.1041667,28.4534533 L23.9166667,28.4534533 C23.2268067,28.4534533 22.7662667,28.27672 22.46875,27.9841867 C22.0888167,27.4227867 22.0043567,27.0026533 22,26.4511867 Z" id="Shape" fill="#FE7202" fill-rule="nonzero"></path>
                        <path d="M114.832114,45.480607 L103.208689,45.480607 C102.422461,45.480607 101.891225,44.6259824 102.039971,43.6398771 L103.272437,34.6991891 C103.357435,34.0417856 103.931168,33.5377762 104.526152,33.5377762 L113.493402,33.5377762 C114.109634,33.5377762 114.662119,34.063699 114.747117,34.6991891 L115.979582,43.6398771 C116.128328,44.6259824 115.618342,45.480607 114.832114,45.480607 Z" id="Shape" stroke="#FE7202"></path>
                        <path d="M105.524874,35.5538137 C105.461126,35.1155447 105.439876,34.6334487 105.439876,34.1513528 C105.439876,30.7766814 107.033582,28.0375 109.009777,28.0375 C110.985972,28.0375 112.579677,30.7766814 112.579677,34.1513528 C112.579677,34.6334487 112.537178,35.0936312 112.49468,35.5538137" id="Shape" stroke="#FE7202"></path>
                        <ellipse id="Oval" stroke="#FE7202" fill="#000000" fill-rule="nonzero" cx="112.409682" cy="36.2769576" rx="1" ry="1"></ellipse>
                        <ellipse id="Oval" stroke="#FE7202" fill="#000000" fill-rule="nonzero" cx="105.609872" cy="36.2769576" rx="1" ry="1"></ellipse>
                    </g>
                </g>
            </g>
        </g>
    </g>
</svg>